<svg width="30" height="32" viewBox="0 0 30 32" fill="none" xmlns="http://www.w3.org/2000/svg">
<path d="M29.2703 12.19H27.7503V15.24H26.2203V13.72H24.7003V12.19H27.7503V10.67H24.7003V9.14001H23.1803V15.24H21.6503V16.76H7.94031V15.24H6.41031V9.14001H4.89531V10.67H1.84031V12.19H4.89531V13.72H3.37031V15.24H1.84031V12.19H0.320312V16.76H1.84031V18.29H4.89531V28.95H6.41531V30.48H7.94531V32H21.6553V30.48H23.1853V28.95H24.7053V18.29H27.7553V16.76H29.2753L29.2703 12.19ZM23.1803 21.34H6.41031V19.81H23.1803V21.34Z" fill="#000001"/>
<path d="M23.1803 7.62H21.6503V9.14H23.1803V7.62Z" fill="#000001"/>
<path d="M23.1803 1.53003H21.6503V4.57003H23.1803V1.53003Z" fill="#000001"/>
<path d="M21.6504 4.56995H20.1304V7.61995H21.6504V4.56995Z" fill="#000001"/>
<path d="M21.6503 0H18.6003V1.53H21.6503V0Z" fill="#000001"/>
<path d="M20.1303 10.67H18.6003V12.19H20.1303V10.67Z" fill="#000001"/>
<path d="M18.6003 1.53003H17.0803V4.57003H18.6003V1.53003Z" fill="#000001"/>
<path d="M17.0803 4.56995H15.5603V6.09995H17.0803V4.56995Z" fill="#000001"/>
<path d="M14.0303 15.2399H15.5603V13.7199H17.0803V12.1899H12.5103V13.7199H14.0303V15.2399Z" fill="#000001"/>
<path d="M15.5603 6.09998H14.0303V7.61998H15.5603V6.09998Z" fill="#000001"/>
<path d="M14.0303 4.56995H12.5103V6.09995H14.0303V4.56995Z" fill="#000001"/>
<path d="M12.5103 1.53003H10.9803V4.57003H12.5103V1.53003Z" fill="#000001"/>
<path d="M10.9803 10.67H9.46033V12.19H10.9803V10.67Z" fill="#000001"/>
<path d="M10.9803 0H7.94031V1.53H10.9803V0Z" fill="#000001"/>
<path d="M9.46031 4.56995H7.94031V7.61995H9.46031V4.56995Z" fill="#000001"/>
<path d="M7.94028 7.62H6.41028V9.14H7.94028V7.62Z" fill="#000001"/>
<path d="M7.94028 1.53003H6.41028V4.57003H7.94028V1.53003Z" fill="#000001"/>
</svg>
